<svg width="67" height="27" viewBox="0 0 67 27" fill="none" xmlns="http://www.w3.org/2000/svg">
<path d="M12.4897 22.6847H18.4532C18.4532 22.1738 18.3199 21.8851 18.0534 21.8185C17.9424 21.7963 17.8091 21.7852 17.6536 21.7852H16.1211V1.02963H8.85835V1.89583H11.8901V9.29187C10.7573 8.31461 9.4025 7.82599 7.82557 7.82599C5.71559 7.82599 3.99429 8.63666 2.66167 10.258C1.50674 11.7239 0.929268 13.5674 0.929268 15.7884C0.929268 18.5425 1.82879 20.5747 3.62782 21.8851C4.64949 22.6403 5.78222 23.0178 7.026 23.0178C9.09156 23.0178 10.6241 22.1405 11.6235 20.3859C11.779 20.1194 11.9123 19.8418 12.0233 19.553L12.4897 22.6847ZM5.49349 15.3886C5.49349 12.1459 6.19311 10.1025 7.59236 9.25855C7.99215 9.03645 8.41414 8.9254 8.85835 8.9254C10.4575 8.9254 11.4458 10.1581 11.8234 12.6234C11.9123 13.2897 11.9567 14.0005 11.9567 14.7556C11.9567 18.0871 11.2571 20.2082 9.85781 21.1189C9.45803 21.3632 9.02492 21.4853 8.55851 21.4853C7.00379 21.4853 6.03764 20.2193 5.66006 17.6874C5.54901 16.9988 5.49349 16.2326 5.49349 15.3886Z" fill="#FAFEFF"/>
<path d="M24.5153 8.7255C25.9367 8.76992 26.6586 9.98039 26.6808 12.3569C26.6808 13.4008 26.3698 14.0449 25.748 14.2892C25.3037 14.4447 24.6374 14.5002 23.749 14.4558L21.6168 14.3558C21.7723 10.6689 22.7385 8.79213 24.5153 8.7255ZM30.7453 19.2532L29.9457 18.9867C29.3238 20.3415 28.3466 21.2632 27.0139 21.7518C26.4809 21.9517 25.9367 22.0517 25.3815 22.0517C23.6047 22.0517 22.4608 20.919 21.95 18.6535C21.7501 17.7207 21.639 16.6102 21.6168 15.322L24.6819 15.4219C28.2577 15.533 30.3344 14.9666 30.9118 13.7228C31.0451 13.4119 31.1117 13.0676 31.1117 12.69C31.1117 10.8022 30.1456 9.42513 28.2133 8.55893C27.125 8.09251 25.8923 7.8593 24.5153 7.8593C22.0055 7.8593 20.051 8.7144 18.6518 10.4246C17.5857 11.7572 17.0526 13.4119 17.0526 15.3886C17.0526 18.6091 18.2631 20.8523 20.684 22.1183C21.8389 22.718 23.1493 23.0178 24.6152 23.0178C27.2138 23.0178 29.0795 22.1072 30.2122 20.286C30.4343 19.9528 30.612 19.6086 30.7453 19.2532Z" fill="#FAFEFF"/>
<path d="M37.3564 21.8185H36.5235L36.5568 13.2897C36.7123 11.5351 37.3564 10.3802 38.4891 9.82491C38.8001 9.66944 39.1221 9.59171 39.4553 9.59171C40.7213 9.59171 41.4653 10.3358 41.6874 11.8238C41.7318 12.1126 41.754 12.4124 41.754 12.7234V20.0861C41.754 21.0189 41.5097 21.5631 41.0211 21.7185C40.799 21.7852 40.5325 21.8185 40.2215 21.8185V22.6847H47.9174C47.9174 22.1738 47.773 21.8962 47.4843 21.8518C47.351 21.8296 47.2178 21.8185 47.0845 21.8185H45.9851V13.2897C45.9851 10.5356 45.0078 8.81435 43.0533 8.12583C42.5203 7.94814 41.965 7.8593 41.3876 7.8593C39.7662 7.8593 38.3892 8.5034 37.2564 9.7916C36.9233 10.1692 36.6568 10.5579 36.4569 10.9576L36.2903 8.35903H30.3601V9.22524H32.2924V20.0861C32.2924 21.1077 31.8149 21.6741 30.8599 21.7852C30.7044 21.8074 30.5378 21.8185 30.3601 21.8185V22.6847H38.156C38.156 22.1738 38.0116 21.8962 37.7229 21.8518C37.6118 21.8296 37.4897 21.8185 37.3564 21.8185Z" fill="#FAFEFF"/>
<path d="M53.4051 21.8185H52.1724V8.35903H46.0091V9.22524H47.9414V20.0861C47.9414 21.0633 47.5527 21.6186 46.7753 21.7518C46.5532 21.7963 46.2978 21.8185 46.0091 21.8185V22.6847H54.2047C54.2047 22.1738 54.0603 21.8962 53.7716 21.8518C53.6605 21.8296 53.5384 21.8185 53.4051 21.8185ZM52.4723 3.99471C52.4723 3.01746 52.0392 2.29562 51.173 1.8292C50.7954 1.6071 50.3956 1.49605 49.9736 1.49605C49.0186 1.49605 48.2967 1.92915 47.8081 2.79535C47.6082 3.17293 47.5083 3.57271 47.5083 3.99471C47.5083 4.97196 47.9414 5.68269 48.8076 6.1269C49.1852 6.32679 49.5738 6.42674 49.9736 6.42674C50.9509 6.42674 51.6727 6.01585 52.1391 5.19407C52.3612 4.81649 52.4723 4.4167 52.4723 3.99471Z" fill="#FAFEFF"/>
<path d="M57.5176 21.7852L66.0463 9.05866V8.35903H54.0528L53.8196 13.323H54.6524L55.7852 10.8577C56.3182 9.81381 57.0512 9.28076 57.984 9.25855H61.9485L53.0533 21.9517V22.6847H65.8798L65.9464 17.0211H65.0802L64.3806 19.653C63.9586 21.0522 63.059 21.763 61.682 21.7852L61.782 21.8185L57.5176 21.7852Z" fill="#FAFEFF"/>
</svg>
