<svg width="21" height="21" viewBox="0 0 21 21" fill="none" xmlns="http://www.w3.org/2000/svg">
<path d="M20.6357 11.3417C20.6577 11.1087 20.5977 10.8657 20.4477 10.6607C20.1227 10.2147 19.4967 10.1167 19.0507 10.4417C18.1007 11.1347 16.9907 11.5277 15.8627 11.6037C14.4947 11.6957 13.0977 11.3207 11.9127 10.4457C10.5797 9.46068 9.77369 8.03068 9.54569 6.51068C9.31769 4.99068 9.66969 3.38668 10.6547 2.05468C10.7967 1.86368 10.8707 1.61968 10.8457 1.36368C10.7927 0.813677 10.3037 0.411677 9.75369 0.465677C7.49569 0.685677 5.43969 1.64568 3.85869 3.11668C2.12269 4.73168 0.956687 6.96368 0.721687 9.50268C0.467687 12.2517 1.35269 14.8457 2.98769 16.8137C4.62269 18.7817 7.00969 20.1267 9.75969 20.3807C12.5097 20.6347 15.1027 19.7497 17.0707 18.1147C19.0387 16.4797 20.3837 14.0927 20.6377 11.3427L20.6357 11.3417ZM18.2067 13.1337C17.7167 14.4967 16.8717 15.6767 15.7907 16.5747C14.2147 17.8837 12.1427 18.5907 9.94269 18.3877C7.74269 18.1847 5.83469 17.1097 4.52569 15.5337C3.21669 13.9577 2.50969 11.8857 2.71269 9.68568C2.89969 7.65368 3.82969 5.87168 5.21969 4.57968C6.00169 3.85168 6.92969 3.27968 7.95069 2.90768C7.49469 4.17168 7.37369 5.51368 7.56669 6.80668C7.86969 8.82968 8.94669 10.7407 10.7227 12.0537C12.3007 13.2207 14.1707 13.7217 15.9947 13.5987C16.7467 13.5487 17.4907 13.3917 18.2047 13.1337H18.2067Z" fill="#3591FF"/>
</svg>
