<svg width="19" height="19" viewBox="0 0 19 19" fill="none" xmlns="http://www.w3.org/2000/svg">
<path d="M8.23056 2.56651L14.1851 8.52109H1.15099C0.529997 8.52109 0.026001 9.02509 0.026001 9.64608C0.026001 10.2671 0.529997 10.7711 1.15099 10.7711H14.1851L8.23056 16.7257C7.79069 17.1655 7.79069 17.8776 8.23056 18.3164C8.67043 18.7551 9.38255 18.7563 9.8213 18.3164L17.6962 10.4415C17.7997 10.338 17.883 10.2142 17.9404 10.077C18.054 9.80133 18.054 9.49084 17.9404 9.21521C17.8852 9.08246 17.8042 8.95872 17.6962 8.85072L9.8213 0.975778C9.38143 0.535906 8.66931 0.535906 8.23056 0.975778C7.79182 1.41565 7.79069 2.12777 8.23056 2.56651V2.56651Z" fill="#3591FF"/>
</svg>
