<svg width="15" height="18" viewBox="0 0 15 18" xmlns="http://www.w3.org/2000/svg">
<path d="M3.63537 3.63616C3.63537 4.05237 3.80502 4.43012 4.07721 4.70231C4.3494 4.9745 4.72715 5.14415 5.14336 5.14415H9.66733C10.0835 5.14415 10.4613 4.9745 10.7335 4.70231C11.0057 4.43012 11.1753 4.05237 11.1753 3.63616H11.9293C12.1374 3.63616 12.3252 3.71985 12.4624 3.85708C12.5996 3.99431 12.6833 4.18205 12.6833 4.39016V14.9461C12.6833 15.1542 12.5996 15.3419 12.4624 15.4792C12.3252 15.6164 12.1374 15.7001 11.9293 15.7001H2.88137C2.67327 15.7001 2.48552 15.6164 2.3483 15.4792C2.21107 15.3419 2.12738 15.1542 2.12738 14.9461V4.39016C2.12738 4.18205 2.21107 3.99431 2.3483 3.85708C2.48552 3.71985 2.67327 3.63616 2.88137 3.63616H3.63537ZM5.14336 0.620178C4.72715 0.620178 4.3494 0.789827 4.07721 1.06202C3.80502 1.33421 3.63537 1.71196 3.63537 2.12817H2.88137C2.25706 2.12817 1.69006 2.38227 1.28215 2.79093C0.874235 3.1996 0.619385 3.76585 0.619385 4.39016V14.9461C0.619385 15.5704 0.873481 16.1374 1.28215 16.5453C1.69081 16.9532 2.25706 17.2081 2.88137 17.2081H11.9293C12.5536 17.2081 13.1206 16.954 13.5285 16.5453C13.9365 16.1367 14.1913 15.5704 14.1913 14.9461V4.39016C14.1913 3.76585 13.9372 3.19884 13.5285 2.79093C13.1199 2.38302 12.5536 2.12817 11.9293 2.12817H11.1753C11.1753 1.71196 11.0057 1.33421 10.7335 1.06202C10.4613 0.789827 10.0835 0.620178 9.66733 0.620178H5.14336ZM5.14336 2.12817H9.66733V3.63616H5.14336V2.12817Z" fill="#2F2F2F"/>
</svg>
