<svg width="30" height="30" viewBox="0 0 30 30" fill="none" xmlns="http://www.w3.org/2000/svg">
<rect width="30" height="30" rx="8" fill="#FAFAFA"/>
<g clip-path="url(#clip0)">
<path d="M12.5348 19.5315C11.5838 19.8165 10.9898 19.7827 10.5976 19.659C10.4243 19.6042 10.2743 19.527 10.1371 19.4325C9.82884 19.2195 9.59184 18.9262 9.29784 18.5535C9.03084 18.2152 8.66034 17.7232 8.13459 17.4465C7.99584 17.373 7.84509 17.3137 7.68159 17.2725C7.27959 17.172 6.87234 17.4165 6.77184 17.8185C6.67134 18.2205 6.91584 18.6277 7.31784 18.7282C7.37334 18.7455 7.43409 18.7732 7.43409 18.7732C7.62309 18.873 7.79934 19.0762 8.11959 19.4827C8.39409 19.8307 8.76159 20.3062 9.28434 20.667C9.53334 20.8387 9.81759 20.9865 10.1461 21.09C10.9073 21.3307 11.8231 21.312 12.9661 20.9685C13.3628 20.8492 13.5878 20.4315 13.4686 20.0347C13.3493 19.638 12.9316 19.413 12.5348 19.5322V19.5315ZM18.7501 22.5V19.656C18.7891 19.143 18.7081 18.6487 18.5311 18.1995C19.1138 18.0712 19.7033 17.8792 20.2538 17.5822C21.8161 16.7392 22.8758 15.1507 22.8758 12.39C22.8758 11.2627 22.4888 10.2247 21.8416 9.40425C22.1078 8.3955 22.0111 7.35975 21.6218 6.4545C21.5303 6.24225 21.3526 6.093 21.1463 6.0315C20.8786 5.952 19.8473 5.79975 17.8666 7.053C16.1618 6.64725 14.4488 6.67125 12.8821 7.0515C10.9028 5.79975 9.87234 5.952 9.60459 6.0315C9.38259 6.0975 9.21384 6.2565 9.12834 6.45525C8.71284 7.42425 8.66034 8.45925 8.90934 9.40425C8.21184 10.2877 7.86909 11.355 7.87509 12.417C7.87509 15.1335 8.91684 16.7092 10.4558 17.5612C11.0198 17.8732 11.6258 18.075 12.2236 18.2115C12.0848 18.5625 12.0091 18.9322 11.9956 19.3035C11.9918 19.4092 11.9933 19.5157 11.9993 19.6215L12.0001 22.5C12.0001 22.914 12.3361 23.25 12.7501 23.25C13.1641 23.25 13.5001 22.914 13.5001 22.5V19.5975C13.5001 19.5817 13.4993 19.5637 13.4986 19.5457C13.4941 19.4827 13.4933 19.4197 13.4956 19.3567C13.5106 18.9307 13.6763 18.5122 13.9943 18.1837C14.1031 18.072 14.1788 17.9235 14.1998 17.7547C14.2508 17.3437 13.9591 16.9687 13.5481 16.9177C13.2931 16.8862 13.0403 16.8472 12.7936 16.7985C12.2011 16.6815 11.6551 16.5097 11.1833 16.2487C10.2046 15.7065 9.39009 14.6955 9.37584 12.4672C9.38559 11.5365 9.69009 10.728 10.2938 10.0935C10.4866 9.88875 10.5563 9.59025 10.4528 9.3135C10.2428 8.7525 10.1971 8.1285 10.3478 7.5195C10.7161 7.59975 11.3633 7.8315 12.3331 8.481C12.5093 8.59875 12.7328 8.6415 12.9518 8.58075C14.4496 8.163 16.1333 8.12925 17.8043 8.58225C18.0076 8.637 18.2311 8.607 18.4178 8.481C19.3876 7.8315 20.0348 7.59975 20.4031 7.5195C20.5448 8.094 20.5208 8.71575 20.2973 9.3135C20.2006 9.5775 20.2538 9.87975 20.4571 10.0935C21.0256 10.6897 21.3751 11.4975 21.3751 12.3885C21.3751 14.6947 20.5396 15.7222 19.5413 16.2607C19.0741 16.5127 18.5341 16.677 17.9491 16.7857C17.7076 16.8307 17.4608 16.8652 17.2118 16.893C17.0543 16.9102 16.8983 16.9785 16.7738 17.0992C16.4761 17.3872 16.4678 17.862 16.7558 18.1597C16.8061 18.2122 16.8533 18.267 16.8968 18.3247C17.1518 18.6615 17.2876 19.086 17.2523 19.5375C17.2523 19.5555 17.2516 19.5757 17.2501 19.596V22.5C17.2501 22.914 17.5861 23.25 18.0001 23.25C18.4141 23.25 18.7501 22.914 18.7501 22.5Z" fill="#2F2F2F"/>
</g>
<defs>
<clipPath id="clip0">
<rect width="18" height="18" fill="white" transform="translate(6.00012 6)"/>
</clipPath>
</defs>
</svg>
