<svg width="30" height="30" viewBox="0 0 30 30" fill="none" xmlns="http://www.w3.org/2000/svg">
<rect width="30" height="30" rx="8" fill="#FAFAFA"/>
<g clip-path="url(#clip0)">
<path d="M17.9999 11.25C16.5501 11.25 15.2369 11.8388 14.2874 12.7875C13.3379 13.7362 12.7499 15.0503 12.7499 16.5V21.75C12.7499 22.164 13.0859 22.5 13.4999 22.5H16.4999C16.9139 22.5 17.2499 22.164 17.2499 21.75V16.5C17.2499 16.293 17.3331 16.1062 17.4696 15.9698C17.6061 15.8333 17.7929 15.75 17.9999 15.75C18.2069 15.75 18.3936 15.8333 18.5301 15.9698C18.6666 16.1062 18.7499 16.293 18.7499 16.5V21.75C18.7499 22.164 19.0859 22.5 19.4999 22.5H22.4999C22.9139 22.5 23.2499 22.164 23.2499 21.75V16.5C23.2499 15.0503 22.6611 13.737 21.7124 12.7875C20.7636 11.838 19.4496 11.25 17.9999 11.25ZM17.9999 12.75C19.0356 12.75 19.9724 13.1693 20.6519 13.848C21.3314 14.5267 21.7499 15.4642 21.7499 16.5V21H20.2499V16.5C20.2499 15.879 19.9971 15.315 19.5906 14.9093C19.1841 14.5035 18.6209 14.25 17.9999 14.25C17.3789 14.25 16.8149 14.5027 16.4091 14.9093C16.0034 15.3158 15.7499 15.879 15.7499 16.5V21H14.2499V16.5C14.2499 15.4642 14.6691 14.5275 15.3479 13.848C16.0266 13.1685 16.9641 12.75 17.9999 12.75ZM7.49988 12C7.08588 12 6.74988 12.336 6.74988 12.75V21.75C6.74988 22.164 7.08588 22.5 7.49988 22.5H10.4999C10.9139 22.5 11.2499 22.164 11.2499 21.75V12.75C11.2499 12.336 10.9139 12 10.4999 12H7.49988ZM8.24988 13.5H9.74988V21H8.24988V13.5ZM11.2499 9C11.2499 8.379 10.9971 7.815 10.5906 7.40925C10.1841 7.0035 9.62088 6.75 8.99988 6.75C8.37888 6.75 7.81488 7.00275 7.40913 7.40925C7.00338 7.81575 6.74988 8.379 6.74988 9C6.74988 9.621 7.00263 10.185 7.40913 10.5907C7.81563 10.9965 8.37888 11.25 8.99988 11.25C9.62088 11.25 10.1849 10.9973 10.5906 10.5907C10.9964 10.1842 11.2499 9.621 11.2499 9ZM9.74988 9C9.74988 9.207 9.66663 9.39375 9.53013 9.53025C9.39363 9.66675 9.20688 9.75 8.99988 9.75C8.79288 9.75 8.60613 9.66675 8.46963 9.53025C8.33313 9.39375 8.24988 9.207 8.24988 9C8.24988 8.793 8.33313 8.60625 8.46963 8.46975C8.60613 8.33325 8.79288 8.25 8.99988 8.25C9.20688 8.25 9.39363 8.33325 9.53013 8.46975C9.66663 8.60625 9.74988 8.793 9.74988 9Z" fill="#2F2F2F"/>
</g>
<defs>
<clipPath id="clip0">
<rect width="18" height="18" fill="white" transform="translate(5.99988 6)"/>
</clipPath>
</defs>
</svg>
