<svg width="66" height="27" viewBox="0 0 66 27" fill="none" xmlns="http://www.w3.org/2000/svg">
<path d="M11.9204 22.1032H17.8839C17.8839 21.5924 17.7506 21.3037 17.4841 21.237C17.373 21.2148 17.2398 21.2037 17.0843 21.2037H15.5518V0.448181H8.289V1.31438H11.3207V8.71042C10.188 7.73316 8.83316 7.24453 7.25622 7.24453C5.14625 7.24453 3.42495 8.05521 2.09233 9.67656C0.937392 11.1424 0.359924 12.9859 0.359924 15.2069C0.359924 17.961 1.25944 19.9933 3.05848 21.3037C4.08015 22.0588 5.21288 22.4364 6.45665 22.4364C8.52221 22.4364 10.0547 21.5591 11.0542 19.8045C11.2097 19.5379 11.3429 19.2603 11.454 18.9716L11.9204 22.1032ZM4.92414 14.8071C4.92414 11.5644 5.62377 9.52109 7.02302 8.6771C7.4228 8.455 7.8448 8.34395 8.289 8.34395C9.88815 8.34395 10.8765 9.57662 11.2541 12.042C11.3429 12.7083 11.3873 13.419 11.3873 14.1742C11.3873 17.5057 10.6877 19.6268 9.28847 20.5374C8.88868 20.7817 8.45558 20.9039 7.98916 20.9039C6.43444 20.9039 5.46829 19.6379 5.09072 17.1059C4.97967 16.4174 4.92414 15.6511 4.92414 14.8071Z" fill="#FAFEFF"/>
<path d="M23.9459 8.14405C25.3674 8.18847 26.0892 9.39893 26.1114 11.7754C26.1114 12.8193 25.8005 13.4634 25.1786 13.7077C24.7344 13.8632 24.0681 13.9187 23.1797 13.8743L21.0475 13.7744C21.203 10.0875 22.1691 8.21068 23.9459 8.14405ZM30.1759 18.6717L29.3764 18.4052C28.7545 19.76 27.7772 20.6818 26.4446 21.1704C25.9115 21.3703 25.3674 21.4702 24.8121 21.4702C23.0353 21.4702 21.8915 20.3375 21.3806 18.0721C21.1808 17.1392 21.0697 16.0287 21.0475 14.7405L24.1125 14.8405C27.6884 14.9515 29.765 14.3851 30.3425 13.1414C30.4758 12.8304 30.5424 12.4862 30.5424 12.1086C30.5424 10.2207 29.5762 8.84368 27.644 7.97748C26.5556 7.51106 25.323 7.27785 23.9459 7.27785C21.4362 7.27785 19.4817 8.13295 18.0824 9.84314C17.0163 11.1758 16.4833 12.8304 16.4833 14.8071C16.4833 18.0276 17.6937 20.2709 20.1147 21.5369C21.2696 22.1365 22.58 22.4364 24.0459 22.4364C26.6445 22.4364 28.5102 21.5258 29.6429 19.7045C29.865 19.3714 30.0427 19.0271 30.1759 18.6717Z" fill="#FAFEFF"/>
<path d="M36.787 21.237H35.9542L35.9875 12.7083C36.1429 10.9537 36.787 9.79872 37.9198 9.24346C38.2307 9.08799 38.5528 9.01025 38.8859 9.01025C40.1519 9.01025 40.896 9.7543 41.1181 11.2424C41.1625 11.5311 41.1847 11.831 41.1847 12.1419V19.5046C41.1847 20.4375 40.9404 20.9816 40.4517 21.1371C40.2296 21.2037 39.9631 21.237 39.6522 21.237V22.1032H47.348C47.348 21.5924 47.2037 21.3148 46.9149 21.2703C46.7817 21.2481 46.6484 21.237 46.5152 21.237H45.4158V12.7083C45.4158 9.95419 44.4385 8.23289 42.484 7.54437C41.9509 7.36669 41.3957 7.27785 40.8182 7.27785C39.1969 7.27785 37.8198 7.92195 36.6871 9.21015C36.3539 9.58772 36.0874 9.9764 35.8875 10.3762L35.721 7.77758H29.7908V8.64378H31.7231V19.5046C31.7231 20.5263 31.2456 21.0927 30.2905 21.2037C30.1351 21.2259 29.9685 21.237 29.7908 21.237V22.1032H37.5866C37.5866 21.5924 37.4423 21.3148 37.1535 21.2703C37.0425 21.2481 36.9203 21.237 36.787 21.237Z" fill="#FAFEFF"/>
<path d="M52.8358 21.237H51.6031V7.77758H45.4397V8.64378H47.372V19.5046C47.372 20.4819 46.9834 21.0371 46.206 21.1704C45.9839 21.2148 45.7285 21.237 45.4397 21.237V22.1032H53.6353C53.6353 21.5924 53.491 21.3148 53.2022 21.2703C53.0912 21.2481 52.969 21.237 52.8358 21.237ZM51.9029 3.41326C51.9029 2.436 51.4698 1.71417 50.6036 1.24775C50.2261 1.02565 49.8263 0.914598 49.4043 0.914598C48.4492 0.914598 47.7274 1.3477 47.2388 2.2139C47.0389 2.59148 46.9389 2.99126 46.9389 3.41326C46.9389 4.39051 47.372 5.10124 48.2382 5.54545C48.6158 5.74534 49.0045 5.84529 49.4043 5.84529C50.3815 5.84529 51.1034 5.43439 51.5698 4.61261C51.7919 4.23504 51.9029 3.83525 51.9029 3.41326Z" fill="#FAFEFF"/>
<path d="M56.9482 21.2037L65.477 8.47721V7.77758H53.4834L53.2502 12.7416H54.0831L55.2158 10.2762C55.7489 9.23236 56.4818 8.69931 57.4146 8.6771H61.3792L52.484 21.3703V22.1032H65.3104L65.377 16.4396H64.5108L63.8112 19.0715C63.3892 20.4708 62.4897 21.1815 61.1127 21.2037L61.2126 21.237L56.9482 21.2037Z" fill="#FAFEFF"/>
</svg>
