<svg width="67" height="27" viewBox="0 0 67 27" fill="none" xmlns="http://www.w3.org/2000/svg">
<path d="M12.6667 22.1316H18.6301C18.6301 21.6208 18.4969 21.332 18.2303 21.2654C18.1193 21.2432 17.986 21.2321 17.8306 21.2321H16.2981V0.476562H9.03528V1.34276H12.067V8.7388C10.9343 7.76154 9.57943 7.27292 8.0025 7.27292C5.89252 7.27292 4.17122 8.08359 2.83861 9.70494C1.68367 11.1708 1.1062 13.0143 1.1062 15.2353C1.1062 17.9894 2.00572 20.0216 3.80475 21.332C4.82643 22.0872 5.95915 22.4648 7.20293 22.4648C9.26849 22.4648 10.801 21.5875 11.8005 19.8328C11.9559 19.5663 12.0892 19.2887 12.2002 19L12.6667 22.1316ZM5.67042 14.8355C5.67042 11.5928 6.37004 9.54947 7.76929 8.70548C8.16908 8.48338 8.59107 8.37233 9.03528 8.37233C10.6344 8.37233 11.6228 9.605 12.0004 12.0703C12.0892 12.7367 12.1336 13.4474 12.1336 14.2025C12.1336 17.5341 11.434 19.6552 10.0347 20.5658C9.63496 20.8101 9.20186 20.9323 8.73544 20.9323C7.18072 20.9323 6.21457 19.6663 5.837 17.1343C5.72594 16.4458 5.67042 15.6795 5.67042 14.8355Z" fill="#23436A"/>
<path d="M24.6922 8.17243C26.1137 8.21685 26.8355 9.42732 26.8577 11.8038C26.8577 12.8477 26.5468 13.4918 25.9249 13.7361C25.4807 13.8916 24.8144 13.9471 23.926 13.9027L21.7938 13.8027C21.9492 10.1158 22.9154 8.23906 24.6922 8.17243ZM30.9222 18.7001L30.1226 18.4336C29.5007 19.7884 28.5235 20.7102 27.1909 21.1988C26.6578 21.3987 26.1137 21.4986 25.5584 21.4986C23.7816 21.4986 22.6378 20.3659 22.1269 18.1004C21.927 17.1676 21.816 16.0571 21.7938 14.7689L24.8588 14.8688C28.4347 14.9799 30.5113 14.4135 31.0888 13.1698C31.222 12.8588 31.2887 12.5145 31.2887 12.137C31.2887 10.2491 30.3225 8.87206 28.3902 8.00586C27.3019 7.53944 26.0693 7.30623 24.6922 7.30623C22.1824 7.30623 20.2279 8.16133 18.8287 9.87152C17.7626 11.2041 17.2296 12.8588 17.2296 14.8355C17.2296 18.056 18.44 20.2993 20.8609 21.5652C22.0159 22.1649 23.3263 22.4648 24.7922 22.4648C27.3908 22.4648 29.2564 21.5541 30.3892 19.7329C30.6113 19.3997 30.7889 19.0555 30.9222 18.7001Z" fill="#23436A"/>
<path d="M37.5333 21.2654H36.7004L36.7338 12.7367C36.8892 10.982 37.5333 9.8271 38.666 9.27184C38.977 9.11637 39.299 9.03864 39.6322 9.03864C40.8982 9.03864 41.6422 9.78268 41.8643 11.2708C41.9088 11.5595 41.931 11.8593 41.931 12.1703V19.533C41.931 20.4658 41.6867 21.01 41.198 21.1655C40.9759 21.2321 40.7094 21.2654 40.3985 21.2654V22.1316H48.0943C48.0943 21.6208 47.95 21.3431 47.6612 21.2987C47.528 21.2765 47.3947 21.2654 47.2614 21.2654H46.162V12.7367C46.162 9.98257 45.1848 8.26127 43.2303 7.57276C42.6972 7.39507 42.142 7.30623 41.5645 7.30623C39.9431 7.30623 38.5661 7.95033 37.4334 9.23853C37.1002 9.6161 36.8337 10.0048 36.6338 10.4046L36.4672 7.80596H30.5371V8.67217H32.4694V19.533C32.4694 20.5547 31.9919 21.121 31.0368 21.2321C30.8813 21.2543 30.7148 21.2654 30.5371 21.2654V22.1316H38.3329C38.3329 21.6208 38.1885 21.3431 37.8998 21.2987C37.7887 21.2765 37.6666 21.2654 37.5333 21.2654Z" fill="#23436A"/>
<path d="M53.582 21.2654H52.3494V7.80596H46.186V8.67217H48.1183V19.533C48.1183 20.5103 47.7296 21.0655 46.9523 21.1988C46.7302 21.2432 46.4748 21.2654 46.186 21.2654V22.1316H54.3816C54.3816 21.6208 54.2373 21.3431 53.9485 21.2987C53.8375 21.2765 53.7153 21.2654 53.582 21.2654ZM52.6492 3.44164C52.6492 2.46438 52.2161 1.74255 51.3499 1.27613C50.9723 1.05403 50.5726 0.942979 50.1506 0.942979C49.1955 0.942979 48.4737 1.37608 47.9851 2.24228C47.7852 2.61986 47.6852 3.01964 47.6852 3.44164C47.6852 4.41889 48.1183 5.12962 48.9845 5.57383C49.3621 5.77372 49.7508 5.87367 50.1506 5.87367C51.1278 5.87367 51.8496 5.46278 52.3161 4.64099C52.5382 4.26342 52.6492 3.86363 52.6492 3.44164Z" fill="#23436A"/>
<path d="M57.6945 21.2321L66.2233 8.50559V7.80596H54.2297L53.9965 12.77H54.8294L55.9621 10.3046C56.4952 9.26074 57.2281 8.72769 58.1609 8.70548H62.1255L53.2302 21.3987V22.1316H66.0567L66.1233 16.468H65.2571L64.5575 19.0999C64.1355 20.4992 63.236 21.2099 61.8589 21.2321L61.9589 21.2654L57.6945 21.2321Z" fill="#23436A"/>
</svg>
