<svg width="25" height="25" viewBox="0 0 25 25" fill="none" xmlns="http://www.w3.org/2000/svg">
<path d="M18.6594 12.4423C18.6594 10.7853 17.9864 9.28426 16.9024 8.19926C15.8184 7.11426 14.3164 6.44226 12.6594 6.44226C11.0024 6.44226 9.50142 7.11526 8.41642 8.19926C7.33142 9.28326 6.65942 10.7853 6.65942 12.4423C6.65942 14.0993 7.33242 15.6003 8.41642 16.6853C9.50042 17.7703 11.0024 18.4423 12.6594 18.4423C14.3164 18.4423 15.8174 17.7693 16.9024 16.6853C17.9874 15.6013 18.6594 14.0993 18.6594 12.4423ZM16.6594 12.4423C16.6594 13.5473 16.2124 14.5453 15.4874 15.2703C14.7624 15.9953 13.7644 16.4423 12.6594 16.4423C11.5544 16.4423 10.5564 15.9953 9.83142 15.2703C9.10642 14.5453 8.65942 13.5473 8.65942 12.4423C8.65942 11.3373 9.10642 10.3393 9.83142 9.61426C10.5564 8.88926 11.5544 8.44226 12.6594 8.44226C13.7644 8.44226 14.7624 8.88926 15.4874 9.61426C16.2124 10.3393 16.6594 11.3373 16.6594 12.4423ZM11.6594 1.44226V3.44226C11.6594 3.99426 12.1074 4.44226 12.6594 4.44226C13.2114 4.44226 13.6594 3.99426 13.6594 3.44226V1.44226C13.6594 0.890261 13.2114 0.442261 12.6594 0.442261C12.1074 0.442261 11.6594 0.890261 11.6594 1.44226ZM11.6594 21.4423V23.4423C11.6594 23.9943 12.1074 24.4423 12.6594 24.4423C13.2114 24.4423 13.6594 23.9943 13.6594 23.4423V21.4423C13.6594 20.8903 13.2114 20.4423 12.6594 20.4423C12.1074 20.4423 11.6594 20.8903 11.6594 21.4423ZM4.17242 5.36926L5.59242 6.78926C5.98342 7.18026 6.61642 7.18026 7.00642 6.78926C7.39642 6.39826 7.39742 5.76526 7.00642 5.37526L5.58642 3.95526C5.19542 3.56426 4.56242 3.56426 4.17242 3.95526C3.78242 4.34626 3.78142 4.97926 4.17242 5.36926ZM18.3124 19.5093L19.7324 20.9293C20.1234 21.3203 20.7564 21.3203 21.1464 20.9293C21.5364 20.5383 21.5374 19.9053 21.1464 19.5153L19.7264 18.0953C19.3354 17.7043 18.7024 17.7043 18.3124 18.0953C17.9224 18.4863 17.9214 19.1193 18.3124 19.5093ZM1.65942 13.4423H3.65942C4.21142 13.4423 4.65942 12.9943 4.65942 12.4423C4.65942 11.8903 4.21142 11.4423 3.65942 11.4423H1.65942C1.10742 11.4423 0.659424 11.8903 0.659424 12.4423C0.659424 12.9943 1.10742 13.4423 1.65942 13.4423ZM21.6594 13.4423H23.6594C24.2114 13.4423 24.6594 12.9943 24.6594 12.4423C24.6594 11.8903 24.2114 11.4423 23.6594 11.4423H21.6594C21.1074 11.4423 20.6594 11.8903 20.6594 12.4423C20.6594 12.9943 21.1074 13.4423 21.6594 13.4423ZM5.58642 20.9293L7.00642 19.5093C7.39742 19.1183 7.39742 18.4853 7.00642 18.0953C6.61542 17.7053 5.98242 17.7043 5.59242 18.0953L4.17242 19.5153C3.78142 19.9063 3.78142 20.5393 4.17242 20.9293C4.56342 21.3193 5.19642 21.3203 5.58642 20.9293ZM19.7264 6.78926L21.1464 5.36926C21.5374 4.97826 21.5374 4.34526 21.1464 3.95526C20.7554 3.56526 20.1224 3.56426 19.7324 3.95526L18.3124 5.37526C17.9214 5.76626 17.9214 6.39926 18.3124 6.78926C18.7034 7.17926 19.3364 7.18026 19.7264 6.78926Z" fill="#3591FF"/>
</svg>
